<svg xmlns="http://www.w3.org/2000/svg" viewBox="0 0 227.03 61.82" width="227.03" height="61.82">
<g transform="translate(-443.75 -141.84)">
<path d="M560.07 176.67L559.95 174.08C559.33 175.18 558.32 176.03 556.93 176.65C555.55 177.26 553.95 177.57 552.14 177.57C550.34 177.57 548.71 177.18 547.26 176.41C545.81 175.64 544.56 174.61 543.53 173.31C542.50 172.02 541.71 170.53 541.16 168.84C540.61 167.15 540.33 165.40 540.33 163.60C540.33 161.69 540.61 159.89 541.16 158.20C541.71 156.52 542.52 155.04 543.59 153.79C544.66 152.53 546.00 151.55 547.59 150.83C549.19 150.11 551.05 149.75 553.17 149.75C554.71 149.75 556.15 149.97 557.50 150.41C558.85 150.86 560.03 151.47 561.03 152.26C562.04 153.04 562.85 153.98 563.47 155.06C564.08 156.15 564.44 157.35 564.55 158.65L559.05 158.65C558.97 158.05 558.76 157.48 558.42 156.95C558.08 156.41 557.65 155.95 557.13 155.55C556.60 155.16 556.00 154.85 555.30 154.61C554.61 154.38 553.90 154.26 553.17 154.26C550.97 154.26 549.21 155.08 547.89 156.71C546.57 158.35 545.91 160.72 545.91 163.83C545.91 164.91 546.04 165.99 546.32 167.07C546.59 168.16 547.02 169.14 547.61 170.02C548.20 170.89 548.95 171.60 549.87 172.15C550.78 172.70 551.87 172.98 553.13 172.98C554.01 172.98 554.85 172.82 555.62 172.51C556.39 172.19 557.06 171.76 557.64 171.21C558.21 170.66 558.67 170.03 558.99 169.31C559.32 168.59 559.48 167.82 559.48 167.01L553.71 167.01L553.71 162.66L564.58 162.66L564.58 176.67L560.07 176.67" fill="#FBAF3A"/>
<path d="M578.67 177.57C574.64 177.57 571.55 176.39 569.39 174.04C567.23 171.68 566.15 168.29 566.15 163.87C566.15 161.68 566.43 159.70 566.98 157.95C567.53 156.20 568.34 154.71 569.41 153.49C570.48 152.28 571.79 151.35 573.33 150.71C574.88 150.07 576.66 149.75 578.67 149.75C580.66 149.75 582.43 150.07 583.99 150.71C585.54 151.35 586.85 152.28 587.89 153.51C588.94 154.74 589.74 156.24 590.29 158.01C590.84 159.77 591.11 161.77 591.11 163.99C591.11 168.49 590.04 171.88 587.91 174.15C585.78 176.43 582.70 177.57 578.67 177.57M578.67 172.90C579.64 172.90 580.56 172.72 581.42 172.37C582.28 172.02 583.03 171.48 583.67 170.76C584.32 170.04 584.82 169.12 585.19 167.99C585.55 166.87 585.73 165.53 585.73 163.99C585.73 160.90 585.13 158.56 583.93 156.97C582.73 155.37 580.97 154.57 578.67 154.57C576.37 154.57 574.60 155.37 573.37 156.97C572.14 158.56 571.53 160.90 571.53 163.99C571.53 167.08 572.15 169.33 573.39 170.76C574.64 172.19 576.40 172.90 578.67 172.90" fill="#FBAF3A"/>
<path d="M607.95 176.67L607.95 169.96C607.95 168.70 607.66 167.80 607.08 167.27C606.51 166.73 605.43 166.46 603.86 166.46L598.06 166.46L598.06 176.67L592.76 176.67L592.76 150.61L605.98 150.61C607.19 150.61 608.28 150.80 609.26 151.18C610.24 151.56 611.08 152.08 611.79 152.75C612.50 153.42 613.04 154.21 613.42 155.14C613.80 156.07 613.99 157.07 613.99 158.14C613.99 159.56 613.66 160.81 612.99 161.89C612.32 162.98 611.36 163.74 610.10 164.19C611.25 164.55 612.07 165.12 612.56 165.88C613.04 166.63 613.28 167.77 613.28 169.29L613.28 176.67L607.95 176.67M598.06 155.12L598.06 162.07L604.88 162.07C606.35 162.07 607.38 161.74 607.98 161.09C608.59 160.43 608.89 159.61 608.89 158.62C608.89 157.60 608.59 156.76 608.00 156.10C607.42 155.45 606.44 155.12 605.08 155.12L598.06 155.12" fill="#FBAF3A"/>
<path d="M629.92 158.30C629.79 156.97 629.31 155.97 628.47 155.32C627.63 154.67 626.39 154.34 624.74 154.34C623.20 154.34 622.03 154.60 621.25 155.12C620.46 155.65 620.07 156.40 620.07 157.40C620.07 158.24 620.38 158.90 620.99 159.40C621.61 159.90 622.65 160.33 624.11 160.69C625.60 161.06 627.02 161.42 628.37 161.77C629.72 162.13 630.88 162.53 631.84 162.97C632.42 163.23 632.95 163.53 633.45 163.87C633.95 164.21 634.38 164.63 634.75 165.13C635.11 165.63 635.40 166.22 635.61 166.90C635.82 167.58 635.92 168.37 635.92 169.29C635.92 170.73 635.67 171.96 635.16 173.00C634.65 174.03 633.93 174.89 633.00 175.57C632.07 176.25 630.97 176.75 629.70 177.08C628.44 177.41 627.04 177.57 625.53 177.57C623.90 177.57 622.43 177.39 621.09 177.04C619.76 176.69 618.61 176.14 617.64 175.41C616.67 174.68 615.91 173.77 615.36 172.68C614.81 171.60 614.52 170.32 614.50 168.86L619.76 168.86C619.81 170.19 620.35 171.24 621.39 172.02C622.42 172.79 623.81 173.17 625.56 173.17C627.19 173.17 628.44 172.85 629.31 172.21C630.19 171.57 630.63 170.66 630.63 169.49C630.63 169.09 630.57 168.74 630.45 168.43C630.33 168.11 630.12 167.82 629.82 167.54C629.52 167.27 629.11 167.02 628.59 166.80C628.06 166.58 627.40 166.37 626.58 166.19C624.96 165.82 623.60 165.50 622.48 165.23C621.37 164.95 620.36 164.61 619.44 164.19C618.03 163.56 616.95 162.74 616.21 161.73C615.46 160.73 615.09 159.40 615.09 157.75C615.09 156.57 615.28 155.50 615.68 154.51C616.07 153.53 616.66 152.69 617.46 151.98C618.26 151.28 619.25 150.73 620.44 150.34C621.63 149.94 623.03 149.75 624.62 149.75C626.27 149.75 627.74 149.96 629.02 150.37C630.30 150.79 631.38 151.38 632.26 152.14C633.13 152.90 633.81 153.80 634.30 154.85C634.78 155.89 635.05 157.05 635.10 158.30L629.92 158.30" fill="#FBAF3A"/>
<path d="M653.27 176.67L645.54 164.93L642.63 167.80L642.63 176.67L637.26 176.67L637.26 150.61L642.63 150.61L642.63 161.21L652.60 150.61L659.66 150.61L649.38 160.89L659.90 176.67L653.27 176.67" fill="#FBAF3A"/>
<path d="M660.96 150.61H666.41V176.67H660.96Z" fill="#FBAF3A"/>
<path d="M473.88 189.07L460.30 168.71L455.20 173.68L455.20 189.07L445.75 189.07L445.75 143.84L455.20 143.84L455.20 162.23L472.71 143.84L485.12 143.84L467.06 161.69L485.54 189.07L473.88 189.07" fill="#146DAB"/>
<path d="M490.28 170.00L490.28 189.07L480.69 189.07L480.69 143.84L513.31 143.84L513.31 151.75L490.28 151.75L490.28 162.03L510.42 162.03L510.42 170.00L490.28 170.00" fill="#146DAB"/>
<path d="M503.67 189.07L503.67 181.04L527.46 151.74L504.36 151.74L504.36 143.84L539.46 143.84L539.46 151.27L515.53 181.04L668.77 181.04L668.77 189.07L503.67 189.07" fill="#146DAB"/>
<path d="M549.00 201.38L549.00 195.71L547.45 201.38L545.73 201.38L544.20 195.74L544.20 201.38L542.60 201.38L542.60 193.11L545.14 193.11L546.63 199.17L548.12 193.11L550.61 193.11L550.61 201.38L549.00 201.38" fill="#146DAB"/>
<path d="M552.51 201.38L552.51 193.11L558.58 193.11L558.58 194.55L554.19 194.55L554.19 196.32L558.23 196.32L558.23 197.78L554.19 197.78L554.19 199.91L558.78 199.91L558.78 201.38L552.51 201.38" fill="#146DAB"/>
<path d="M560.39 193.11H562.12V201.38H560.39Z" fill="#146DAB"/>
<path d="M568.66 195.55C568.61 195.13 568.46 194.81 568.20 194.60C567.93 194.40 567.54 194.29 567.01 194.29C566.52 194.29 566.15 194.37 565.90 194.54C565.66 194.71 565.53 194.95 565.53 195.26C565.53 195.53 565.63 195.74 565.82 195.90C566.02 196.06 566.35 196.19 566.81 196.31C567.29 196.42 567.74 196.54 568.16 196.65C568.59 196.76 568.96 196.89 569.27 197.03C569.45 197.11 569.62 197.21 569.78 197.32C569.93 197.42 570.07 197.56 570.19 197.72C570.30 197.87 570.39 198.06 570.46 198.28C570.53 198.49 570.56 198.75 570.56 199.04C570.56 199.49 570.48 199.88 570.32 200.21C570.16 200.54 569.93 200.81 569.63 201.03C569.34 201.24 568.99 201.40 568.59 201.51C568.18 201.61 567.74 201.66 567.26 201.66C566.75 201.66 566.28 201.61 565.85 201.49C565.43 201.38 565.07 201.21 564.76 200.98C564.45 200.75 564.21 200.46 564.04 200.11C563.86 199.77 563.77 199.36 563.76 198.90L565.43 198.90C565.45 199.32 565.62 199.66 565.95 199.90C566.28 200.15 566.72 200.27 567.27 200.27C567.79 200.27 568.18 200.17 568.46 199.96C568.74 199.76 568.88 199.47 568.88 199.10C568.88 198.97 568.86 198.86 568.82 198.76C568.79 198.66 568.72 198.57 568.62 198.48C568.53 198.39 568.40 198.32 568.23 198.25C568.07 198.17 567.85 198.11 567.60 198.05C567.08 197.94 566.65 197.83 566.30 197.75C565.94 197.66 565.62 197.55 565.33 197.42C564.88 197.22 564.54 196.96 564.30 196.64C564.07 196.32 563.95 195.90 563.95 195.37C563.95 195.00 564.01 194.66 564.14 194.35C564.26 194.04 564.45 193.77 564.70 193.55C564.96 193.32 565.27 193.15 565.65 193.02C566.03 192.90 566.47 192.84 566.97 192.84C567.50 192.84 567.96 192.90 568.37 193.03C568.78 193.17 569.12 193.35 569.40 193.59C569.68 193.84 569.89 194.12 570.04 194.45C570.20 194.79 570.28 195.15 570.30 195.55L568.66 195.55" fill="#146DAB"/>
<path d="M574.11 201.38L574.11 194.55L571.62 194.55L571.62 193.11L578.34 193.11L578.34 194.55L575.84 194.55L575.84 201.38L574.11 201.38" fill="#146DAB"/>
<path d="M580.01 201.38L580.01 193.11L586.09 193.11L586.09 194.55L581.69 194.55L581.69 196.32L585.74 196.32L585.74 197.78L581.69 197.78L581.69 199.91L586.29 199.91L586.29 201.38L580.01 201.38" fill="#146DAB"/>
<path d="M592.71 201.38L592.71 199.25C592.71 198.85 592.62 198.56 592.44 198.39C592.25 198.22 591.91 198.14 591.42 198.14L589.57 198.14L589.57 201.38L587.89 201.38L587.89 193.11L592.09 193.11C592.47 193.11 592.82 193.17 593.13 193.29C593.44 193.41 593.71 193.58 593.93 193.79C594.15 194.00 594.33 194.25 594.45 194.55C594.57 194.84 594.63 195.16 594.63 195.50C594.63 195.95 594.52 196.34 594.31 196.69C594.10 197.03 593.79 197.28 593.40 197.42C593.76 197.53 594.02 197.71 594.17 197.95C594.33 198.19 594.40 198.55 594.40 199.04L594.40 201.38L592.71 201.38M589.57 194.54L589.57 196.74L591.74 196.74C592.20 196.74 592.53 196.64 592.72 196.43C592.91 196.23 593.01 195.96 593.01 195.65C593.01 195.33 592.92 195.06 592.73 194.85C592.54 194.65 592.23 194.54 591.80 194.54L589.57 194.54" fill="#146DAB"/>
<path d="M602.32 201.38L601.04 196.00L599.73 201.38L598.11 201.38L595.77 193.11L597.62 193.11L598.97 198.46L600.12 193.11L601.94 193.11L603.19 198.46L604.54 193.11L606.31 193.11L603.99 201.38L602.32 201.38" fill="#146DAB"/>
<path d="M607.94 201.38L607.94 193.11L614.01 193.11L614.01 194.55L609.62 194.55L609.62 196.32L613.66 196.32L613.66 197.78L609.62 197.78L609.62 199.91L614.21 199.91L614.21 201.38L607.94 201.38" fill="#146DAB"/>
<path d="M620.64 201.38L620.64 199.25C620.64 198.85 620.54 198.56 620.36 198.39C620.18 198.22 619.84 198.14 619.34 198.14L617.50 198.14L617.50 201.38L615.82 201.38L615.82 193.11L620.01 193.11C620.40 193.11 620.74 193.17 621.05 193.29C621.37 193.41 621.63 193.58 621.86 193.79C622.08 194.00 622.25 194.25 622.37 194.55C622.49 194.84 622.55 195.16 622.55 195.50C622.55 195.95 622.45 196.34 622.24 196.69C622.02 197.03 621.72 197.28 621.32 197.42C621.69 197.53 621.95 197.71 622.10 197.95C622.25 198.19 622.33 198.55 622.33 199.04L622.33 201.38L620.64 201.38M617.50 194.54L617.50 196.74L619.67 196.74C620.13 196.74 620.46 196.64 620.65 196.43C620.84 196.23 620.94 195.96 620.94 195.65C620.94 195.33 620.84 195.06 620.66 194.85C620.47 194.65 620.16 194.54 619.73 194.54L617.50 194.54" fill="#146DAB"/>
<path d="M629.35 201.38L626.90 197.65L625.98 198.56L625.98 201.38L624.27 201.38L624.27 193.11L625.98 193.11L625.98 196.47L629.14 193.11L631.38 193.11L628.12 196.37L631.46 201.38L629.35 201.38" fill="#146DAB"/>
<path d="M637.25 195.55C637.20 195.13 637.05 194.81 636.79 194.60C636.52 194.40 636.13 194.29 635.60 194.29C635.11 194.29 634.74 194.37 634.49 194.54C634.25 194.71 634.12 194.95 634.12 195.26C634.12 195.53 634.22 195.74 634.41 195.90C634.61 196.06 634.94 196.19 635.40 196.31C635.88 196.42 636.33 196.54 636.75 196.65C637.18 196.76 637.55 196.89 637.86 197.03C638.04 197.11 638.21 197.21 638.37 197.32C638.52 197.42 638.66 197.56 638.78 197.72C638.89 197.87 638.98 198.06 639.05 198.28C639.12 198.49 639.15 198.75 639.15 199.04C639.15 199.49 639.07 199.88 638.91 200.21C638.75 200.54 638.52 200.81 638.22 201.03C637.93 201.24 637.58 201.40 637.18 201.51C636.77 201.61 636.33 201.66 635.85 201.66C635.34 201.66 634.87 201.61 634.44 201.49C634.02 201.38 633.66 201.21 633.35 200.98C633.04 200.75 632.80 200.46 632.63 200.11C632.45 199.77 632.36 199.36 632.35 198.90L634.02 198.90C634.04 199.32 634.21 199.66 634.54 199.90C634.87 200.15 635.31 200.27 635.86 200.27C636.38 200.27 636.77 200.17 637.05 199.96C637.33 199.76 637.47 199.47 637.47 199.10C637.47 198.97 637.45 198.86 637.41 198.76C637.38 198.66 637.31 198.57 637.21 198.48C637.12 198.39 636.99 198.32 636.82 198.25C636.66 198.17 636.44 198.11 636.19 198.05C635.67 197.94 635.24 197.83 634.89 197.75C634.53 197.66 634.21 197.55 633.92 197.42C633.47 197.22 633.13 196.96 632.89 196.64C632.66 196.32 632.54 195.90 632.54 195.37C632.54 195.00 632.60 194.66 632.73 194.35C632.85 194.04 633.04 193.77 633.29 193.55C633.55 193.32 633.86 193.15 634.24 193.02C634.62 192.90 635.06 192.84 635.56 192.84C636.09 192.84 636.55 192.90 636.96 193.03C637.37 193.17 637.71 193.35 637.99 193.59C638.27 193.84 638.48 194.12 638.63 194.45C638.79 194.79 638.87 195.15 638.89 195.55L637.25 195.55" fill="#146DAB"/>
<path d="M642.70 201.38L642.70 194.55L640.21 194.55L640.21 193.11L646.93 193.11L646.93 194.55L644.43 194.55L644.43 201.38L642.70 201.38" fill="#146DAB"/>
<path d="M652.19 201.38L651.66 199.67L648.61 199.67L648.03 201.38L646.20 201.38L649.15 193.11L651.15 193.11L654.07 201.38L652.19 201.38M650.13 194.96L650.12 194.96L649.06 198.25L651.17 198.25L650.13 194.96" fill="#146DAB"/>
<path d="M655.86 201.38L655.86 194.55L653.37 194.55L653.37 193.11L660.09 193.11L660.09 194.55L657.59 194.55L657.59 201.38L655.86 201.38" fill="#146DAB"/>
<path d="M664.08 201.38L664.08 194.55L661.59 194.55L661.59 193.11L668.31 193.11L668.31 194.55L665.81 194.55L665.81 201.38L664.08 201.38" fill="#146DAB"/>
</g></svg>